<svg width="24.77" height="7.2" viewBox="0 0 24.77 7.2" xmlns="http://www.w3.org/2000/svg"><g id="svgGroup" stroke-linecap="round" fill-rule="evenodd" font-size="9pt" stroke="#ffffff" stroke-width="0.25mm" fill="#ffffff" style="stroke:#ffffff;stroke-width:0.25mm;fill:#ffffff"><path d="M 11.28 0 L 11.88 0 L 11.88 4.81 A 3.153 3.153 0 0 1 11.814 5.47 A 2.494 2.494 0 0 1 11.615 6.05 A 1.896 1.896 0 0 1 10.826 6.875 A 2.315 2.315 0 0 1 10.79 6.895 A 2.252 2.252 0 0 1 10.255 7.098 Q 10 7.162 9.698 7.186 A 4.789 4.789 0 0 1 9.32 7.2 Q 8.66 7.2 8.18 7.036 A 2.141 2.141 0 0 1 7.855 6.895 Q 7.29 6.59 7.025 6.05 A 2.568 2.568 0 0 1 6.791 5.272 A 3.305 3.305 0 0 1 6.76 4.81 L 6.76 0 L 7.36 0 L 7.36 4.72 A 3.266 3.266 0 0 0 7.397 5.224 Q 7.44 5.501 7.534 5.735 A 2.034 2.034 0 0 0 7.54 5.75 Q 7.72 6.19 8.15 6.425 Q 8.465 6.597 8.947 6.643 A 3.933 3.933 0 0 0 9.32 6.66 A 3.894 3.894 0 0 0 9.757 6.637 Q 10.203 6.587 10.495 6.425 Q 10.92 6.19 11.1 5.75 A 2.328 2.328 0 0 0 11.24 5.24 Q 11.28 4.997 11.28 4.72 L 11.28 0 Z M 2.09 7.07 L 0 7.07 L 0 0 L 2.19 0 A 4.19 4.19 0 0 1 3.11 0.095 Q 3.986 0.292 4.52 0.9 A 2.886 2.886 0 0 1 5.085 1.921 Q 5.226 2.35 5.278 2.871 A 6.561 6.561 0 0 1 5.31 3.53 A 5.902 5.902 0 0 1 5.231 4.526 Q 5.058 5.535 4.505 6.16 A 2.551 2.551 0 0 1 3.285 6.914 Q 2.864 7.038 2.355 7.064 A 5.35 5.35 0 0 1 2.09 7.07 Z M 16 4.16 L 14.23 4.16 L 14.23 7.07 L 13.63 7.07 L 13.63 0 L 15.99 0 A 4.93 4.93 0 0 1 16.529 0.028 Q 17.025 0.082 17.37 0.245 Q 17.89 0.49 18.125 0.95 A 2.044 2.044 0 0 1 18.305 1.478 Q 18.36 1.75 18.36 2.07 A 4.168 4.168 0 0 1 18.339 2.5 Q 18.317 2.712 18.272 2.896 A 2.415 2.415 0 0 1 18.25 2.98 A 1.505 1.505 0 0 1 18.03 3.448 A 1.392 1.392 0 0 1 17.87 3.635 Q 17.608 3.893 17.171 4.023 A 2.453 2.453 0 0 1 17.145 4.03 A 2.959 2.959 0 0 1 16.771 4.109 Q 16.569 4.14 16.335 4.152 A 6.419 6.419 0 0 1 16 4.16 Z M 22.2 4.16 L 20.43 4.16 L 20.43 7.07 L 19.83 7.07 L 19.83 0 L 22.19 0 A 4.93 4.93 0 0 1 22.729 0.028 Q 23.225 0.082 23.57 0.245 Q 24.09 0.49 24.325 0.95 A 2.044 2.044 0 0 1 24.505 1.478 Q 24.56 1.75 24.56 2.07 A 4.168 4.168 0 0 1 24.539 2.5 Q 24.517 2.712 24.472 2.896 A 2.415 2.415 0 0 1 24.45 2.98 A 1.505 1.505 0 0 1 24.23 3.448 A 1.392 1.392 0 0 1 24.07 3.635 Q 23.808 3.893 23.371 4.023 A 2.453 2.453 0 0 1 23.345 4.03 A 2.959 2.959 0 0 1 22.971 4.109 Q 22.769 4.14 22.535 4.152 A 6.419 6.419 0 0 1 22.2 4.16 Z M 0.6 6.55 L 2.04 6.55 A 4.525 4.525 0 0 0 2.657 6.511 Q 2.967 6.468 3.222 6.379 A 2.005 2.005 0 0 0 3.63 6.185 Q 4.21 5.82 4.46 5.14 A 3.848 3.848 0 0 0 4.644 4.423 Q 4.7 4.074 4.708 3.678 A 6.698 6.698 0 0 0 4.71 3.53 Q 4.71 2.73 4.532 2.121 A 3.389 3.389 0 0 0 4.465 1.915 A 2.121 2.121 0 0 0 4.095 1.263 A 1.927 1.927 0 0 0 3.655 0.88 A 2.064 2.064 0 0 0 3.095 0.637 Q 2.832 0.564 2.518 0.537 A 4.566 4.566 0 0 0 2.12 0.52 L 0.6 0.52 L 0.6 6.55 Z M 14.23 3.64 L 15.95 3.64 A 4.52 4.52 0 0 0 16.358 3.623 Q 16.765 3.586 17.031 3.469 A 1.263 1.263 0 0 0 17.05 3.46 A 1.216 1.216 0 0 0 17.356 3.262 A 1.002 1.002 0 0 0 17.6 2.93 A 1.649 1.649 0 0 0 17.715 2.567 Q 17.749 2.398 17.757 2.203 A 3.055 3.055 0 0 0 17.76 2.07 A 2.785 2.785 0 0 0 17.738 1.709 Q 17.714 1.524 17.663 1.369 A 1.394 1.394 0 0 0 17.6 1.21 A 1.005 1.005 0 0 0 17.21 0.78 A 1.346 1.346 0 0 0 17.05 0.695 A 1.65 1.65 0 0 0 16.744 0.596 Q 16.437 0.525 16.009 0.52 A 5.596 5.596 0 0 0 15.95 0.52 L 14.23 0.52 L 14.23 3.64 Z M 20.43 3.64 L 22.15 3.64 A 4.52 4.52 0 0 0 22.558 3.623 Q 22.965 3.586 23.231 3.469 A 1.263 1.263 0 0 0 23.25 3.46 A 1.216 1.216 0 0 0 23.556 3.262 A 1.002 1.002 0 0 0 23.8 2.93 A 1.649 1.649 0 0 0 23.915 2.567 Q 23.949 2.398 23.957 2.203 A 3.055 3.055 0 0 0 23.96 2.07 A 2.785 2.785 0 0 0 23.938 1.709 Q 23.914 1.524 23.863 1.369 A 1.394 1.394 0 0 0 23.8 1.21 A 1.005 1.005 0 0 0 23.41 0.78 A 1.346 1.346 0 0 0 23.25 0.695 A 1.65 1.65 0 0 0 22.944 0.596 Q 22.637 0.525 22.209 0.52 A 5.596 5.596 0 0 0 22.15 0.52 L 20.43 0.52 L 20.43 3.64 Z M 16.13 3.94 L 16.73 3.83 L 18.57 7.07 L 17.9 7.07 L 16.13 3.94 Z M 22.33 3.94 L 22.93 3.83 L 24.77 7.07 L 24.1 7.07 L 22.33 3.94 Z" vector-effect="non-scaling-stroke"/></g></svg>